<svg xmlns="http://www.w3.org/2000/svg" viewBox="0 0 900 680" font-family="'Segoe UI', system-ui, -apple-system, sans-serif">
  <defs>
    <style>
      .box { fill: #fff; stroke: #333; stroke-width: 1.5; rx: 6; }
      .group { fill: none; stroke: #333; stroke-width: 1.5; stroke-dasharray: 8,4; rx: 8; }
      .group-fill { fill: #f5a623; opacity: 0.12; stroke: none; rx: 8; }
      .label { font-size: 13px; fill: #333; text-anchor: middle; dominant-baseline: central; }
      .label-bold { font-size: 14px; fill: #333; font-weight: 600; text-anchor: start; }
      .label-title { font-size: 15px; fill: #333; font-weight: 700; text-anchor: start; }
      .module { fill: #fff; stroke: #d4a017; stroke-width: 1.5; rx: 6; }
      .core { fill: #fff; stroke: #d4a017; stroke-width: 1.5; rx: 6; }
      .core-bg { fill: #f5a623; opacity: 0.18; stroke: none; rx: 6; }
      .ext { fill: #fff; stroke: #666; stroke-width: 1.2; rx: 6; }
      .arrow { stroke: #555; stroke-width: 1.5; fill: none; marker-end: url(#arrowhead); }
      .arrow-double { stroke: #555; stroke-width: 1.5; fill: none; marker-end: url(#arrowhead); marker-start: url(#arrowhead-start); }
    </style>
    <marker id="arrowhead" markerWidth="8" markerHeight="6" refX="8" refY="3" orient="auto">
      <polygon points="0 0, 8 3, 0 6" fill="#555"/>
    </marker>
    <marker id="arrowhead-start" markerWidth="8" markerHeight="6" refX="0" refY="3" orient="auto">
      <polygon points="8 0, 0 3, 8 6" fill="#555"/>
    </marker>
  </defs>

  <!-- Main BastionVault group -->
  <rect class="group" x="30" y="20" width="840" height="440"/>
  <text class="label-title" x="50" y="42">BastionVault</text>

  <!-- Interface layer -->
  <rect class="group" x="50" y="55" width="800" height="70"/>
  <text class="label-bold" x="70" y="75">BastionVault Interface</text>
  <rect class="box" x="280" y="80" width="100" height="32"/>
  <text class="label" x="330" y="96">CLI (rvault)</text>
  <rect class="box" x="420" y="80" width="100" height="32"/>
  <text class="label" x="470" y="96">REST API</text>
  <rect class="box" x="560" y="80" width="100" height="32"/>
  <text class="label" x="610" y="96">Daemon</text>

  <!-- Arrow from interface to modules -->
  <line class="arrow" x1="450" y1="125" x2="450" y2="148"/>

  <!-- Modules layer -->
  <rect class="group-fill" x="50" y="150" width="800" height="170"/>
  <rect class="group" x="50" y="150" width="800" height="170"/>
  <text class="label-title" x="70" y="172">BastionVault Modules</text>

  <rect class="module" x="70" y="185" width="130" height="32"/>
  <text class="label" x="135" y="201">KV Secrets</text>

  <rect class="module" x="220" y="185" width="130" height="32"/>
  <text class="label" x="285" y="201">PKI / Keys</text>

  <rect class="module" x="370" y="185" width="130" height="32"/>
  <text class="label" x="435" y="201">Auth / Credential</text>

  <rect class="module" x="520" y="185" width="130" height="32"/>
  <text class="label" x="585" y="201">Policy / ACL</text>

  <rect class="module" x="670" y="185" width="160" height="32"/>
  <text class="label" x="750" y="201">System / Metrics</text>

  <!-- Core managers row -->
  <rect class="core-bg" x="70" y="240" width="760" height="65"/>
  <text class="label-bold" x="90" y="258">Core</text>

  <rect class="core" x="140" y="270" width="130" height="28"/>
  <text class="label" x="205" y="284">Module Manager</text>

  <rect class="core" x="290" y="270" width="130" height="28"/>
  <text class="label" x="355" y="284">Crypto Engine</text>

  <rect class="core" x="440" y="270" width="130" height="28"/>
  <text class="label" x="505" y="284">Storage Engine</text>

  <rect class="core" x="590" y="270" width="130" height="28"/>
  <text class="label" x="655" y="284">Seal Manager</text>

  <!-- TLS layer -->
  <rect class="group" x="50" y="340" width="800" height="50"/>
  <text class="label-bold" x="70" y="370">TLS (rustls)</text>
  <text class="label" x="400" y="370">mTLS &amp; certificate verification</text>

  <!-- Arrow from modules to crypto -->
  <line class="arrow" x1="280" y1="400" x2="280" y2="440"/>
  <!-- Arrow from modules to storage -->
  <line class="arrow" x1="600" y1="400" x2="600" y2="440"/>

  <!-- Crypto layer -->
  <rect class="group" x="50" y="445" width="400" height="105"/>
  <text class="label-bold" x="70" y="468">bv_crypto (Pure Rust)</text>

  <rect class="ext" x="70" y="480" width="110" height="28"/>
  <text class="label" x="125" y="494">ChaCha20</text>

  <rect class="ext" x="195" y="480" width="110" height="28"/>
  <text class="label" x="250" y="494">ML-KEM-768</text>

  <rect class="ext" x="320" y="480" width="110" height="28"/>
  <text class="label" x="375" y="494">ML-DSA-65</text>

  <rect class="ext" x="70" y="515" width="175" height="24"/>
  <text class="label" x="157" y="527" font-size="11">KemDemEnvelopeV1</text>

  <rect class="ext" x="255" y="515" width="175" height="24"/>
  <text class="label" x="342" y="527" font-size="11">BLAKE2b / SHA-256</text>

  <!-- Storage layer -->
  <rect class="group" x="480" y="445" width="370" height="105"/>
  <text class="label-bold" x="500" y="468">Storage Backends</text>

  <rect class="ext" x="500" y="480" width="100" height="28"/>
  <text class="label" x="550" y="494">File</text>

  <rect class="ext" x="615" y="480" width="100" height="28"/>
  <text class="label" x="665" y="494">MySQL</text>

  <rect class="ext" x="730" y="480" width="100" height="28"/>
  <text class="label" x="780" y="494">SQLx</text>

  <rect class="ext" x="500" y="515" width="100" height="28"/>
  <text class="label" x="550" y="529" font-size="12">Rqlite (planned)</text>

  <!-- Footer labels -->
  <text class="label" x="250" y="575" font-size="12" fill="#888">Post-quantum cryptographic primitives</text>
  <text class="label" x="665" y="575" font-size="12" fill="#888">Encrypted at rest via barrier layer</text>
</svg>
